<!DOCTYPE svg PUBLIC "-//W3C//DTD SVG 20010904//EN" "http://www.w3.org/TR/2001/REC-SVG-20010904/DTD/svg10.dtd">
<svg version="1.0" xmlns="http://www.w3.org/2000/svg" width="500px" height="500px" viewBox="0 0 5000 5000" preserveAspectRatio="xMidYMid meet">
<g id="layer101" fill="#9dc3e6" stroke="none">
 <path d="M2899 4600 c-629 -56 -1146 -510 -1280 -1122 -26 -118 -39 -295 -31 -400 l8 -88 -31 -5 c-16 -2 -61 -7 -98 -10 -247 -23 -527 -169 -702 -365 -245 -276 -329 -631 -229 -978 62 -216 204 -421 391 -562 77 -58 232 -139 323 -168 486 -157 1017 23 1302 442 72 105 140 272 154 379 5 37 10 46 23 43 105 -32 373 -38 525 -11 357 62 655 236 884 518 341 418 413 1006 183 1500 -189 407 -557 703 -993 798 -76 17 -288 41 -328 38 -8 -1 -54 -5 -101 -9z m316 -175 c138 -22 229 -51 352 -110 125 -60 174 -91 282 -179 196 -161 354 -426 412 -689 26 -119 35 -328 20 -438 -27 -188 -108 -408 -202 -546 -150 -221 -356 -385 -602 -480 -255 -98 -553 -109 -830 -28 -91 26 -259 105 -337 158 -263 178 -443 437 -530 762 -27 101 -38 336 -21 455 27 189 108 409 202 547 112 165 262 304 425 396 152 85 284 128 484 160 62 10 263 6 345 -8z m-1570 -1667 c47 -161 149 -353 256 -484 171 -210 345 -337 622 -452 18 -8 27 -19 27 -35 0 -53 -42 -183 -90 -275 -92 -181 -227 -311 -415 -403 -450 -219 -1018 -60 -1260 352 -82 140 -114 249 -121 414 -8 168 15 280 90 430 106 214 272 364 504 454 74 29 226 59 303 60 l66 1 18 -62z"/>
 <path d="M1988 2700 c-40 -40 -34 -68 34 -168 66 -95 228 -265 269 -282 36 -16 70 -3 95 34 25 40 10 72 -71 153 -41 40 -106 116 -145 168 -101 135 -127 149 -182 95z"/>
 <path d="M2432 2217 c-48 -51 -11 -140 58 -140 70 0 108 93 57 141 -32 30 -87 29 -115 -1z"/>
 <path d="M782 1667 c-29 -30 -30 -89 -2 -117 29 -29 90 -27 118 3 30 32 29 87 -1 115 -32 30 -87 29 -115 -1z"/>
 <path d="M889 1501 c-31 -31 -34 -46 -20 -83 24 -64 173 -188 243 -203 34 -8 73 14 89 48 16 35 -5 73 -58 110 -27 17 -70 54 -98 81 -90 88 -109 93 -156 47z"/>
 <path d="M3676 1410 c-134 -24 -232 -75 -327 -169 -223 -224 -221 -551 7 -778 113 -112 247 -167 409 -167 161 0 297 56 411 169 141 140 196 310 159 490 -44 213 -218 394 -426 444 -68 16 -177 21 -233 11z m276 -202 c90 -43 152 -103 192 -188 28 -59 31 -74 31 -165 0 -93 -2 -105 -32 -165 -53 -107 -127 -171 -245 -211 -52 -17 -79 -20 -155 -17 -79 4 -102 10 -165 40 -90 43 -152 103 -192 188 -28 59 -31 74 -31 165 0 93 2 105 32 165 52 105 125 169 240 210 47 17 76 20 155 17 85 -3 104 -8 170 -39z"/>
 <path d="M3478 810 c-25 -26 -29 -36 -24 -62 16 -81 116 -178 199 -193 32 -6 40 -3 67 23 16 17 30 39 30 50 0 28 -43 77 -80 92 -16 7 -39 27 -51 46 -25 42 -65 74 -91 74 -11 0 -33 -14 -50 -30z"/>
 </g>

</svg>